<svg width="60" height="60" viewBox="0 0 60 60" fill="none" xmlns="http://www.w3.org/2000/svg">
<rect width="60" height="60" rx="16" fill="#BDDCFF"/>
<path d="M43.7501 27.5H41.8626C41.5852 27.5119 41.3119 27.4311 41.0855 27.2704C40.8592 27.1097 40.6928 26.8782 40.6126 26.6125L38.5126 19.45C38.1243 18.159 37.3291 17.0282 36.2455 16.2262C35.162 15.4242 33.8481 14.9941 32.5001 15H22.1376C20.8894 15.0003 19.6699 15.3743 18.6362 16.0738C17.6025 16.7734 16.8019 17.7664 16.3376 18.925L12.7751 27.8375C12.5906 28.281 12.4971 28.7571 12.5001 29.2375V35C12.5001 36.4646 13.0145 37.8827 13.9535 39.0067C14.8925 40.1307 16.1963 40.8893 17.6376 41.15C17.8972 42.2341 18.5116 43.2004 19.3833 43.8952C20.255 44.5901 21.3339 44.9738 22.4485 44.9853C23.5632 44.9968 24.6498 44.6354 25.5356 43.9587C26.4214 43.2819 27.0557 42.3285 27.3376 41.25H32.6626C32.9422 42.32 33.5687 43.2671 34.4441 43.943C35.3194 44.619 36.3941 44.9856 37.5001 44.9856C38.606 44.9856 39.6807 44.619 40.5561 43.943C41.4314 43.2671 42.0579 42.32 42.3376 41.25H43.7501C44.7446 41.25 45.6985 40.8549 46.4017 40.1516C47.105 39.4484 47.5001 38.4946 47.5001 37.5V31.25C47.5001 30.2554 47.105 29.3016 46.4017 28.5983C45.6985 27.8951 44.7446 27.5 43.7501 27.5ZM22.5001 42.5C22.0056 42.5 21.5223 42.3534 21.1111 42.0787C20.7 41.804 20.3796 41.4135 20.1904 40.9567C20.0012 40.4999 19.9516 39.9972 20.0481 39.5123C20.1446 39.0273 20.3827 38.5819 20.7323 38.2322C21.0819 37.8826 21.5274 37.6445 22.0123 37.548C22.4973 37.4516 23 37.5011 23.4568 37.6903C23.9136 37.8795 24.304 38.1999 24.5787 38.6111C24.8534 39.0222 25.0001 39.5055 25.0001 40C25.0001 40.663 24.7367 41.2989 24.2678 41.7678C23.799 42.2366 23.1631 42.5 22.5001 42.5ZM28.7501 27.5H15.5876L18.6501 19.8625C18.928 19.1648 19.409 18.5665 20.0308 18.1453C20.6526 17.7241 21.3865 17.4993 22.1376 17.5H28.7501V27.5ZM31.2501 27.5V17.5H32.5001C33.3125 17.493 34.1053 17.75 34.759 18.2325C35.4128 18.7149 35.8922 19.3966 36.1251 20.175L38.2626 27.325C38.2822 27.3855 38.3073 27.4441 38.3376 27.5H31.2501ZM37.5001 42.5C37.0056 42.5 36.5223 42.3534 36.1111 42.0787C35.7 41.804 35.3796 41.4135 35.1904 40.9567C35.0012 40.4999 34.9516 39.9972 35.0481 39.5123C35.1446 39.0273 35.3827 38.5819 35.7323 38.2322C36.0819 37.8826 36.5274 37.6445 37.0123 37.548C37.4973 37.4516 38 37.5011 38.4568 37.6903C38.9136 37.8795 39.304 38.1999 39.5787 38.6111C39.8534 39.0222 40.0001 39.5055 40.0001 40C40.0001 40.663 39.7367 41.2989 39.2678 41.7678C38.799 42.2366 38.1631 42.5 37.5001 42.5ZM45.0001 35H43.7501C43.4185 35 43.1006 34.8683 42.8662 34.6339C42.6318 34.3995 42.5001 34.0815 42.5001 33.75C42.5001 33.4185 42.6318 33.1005 42.8662 32.8661C43.1006 32.6317 43.4185 32.5 43.7501 32.5H45.0001V35Z" fill="#0077FF"/>
</svg>
