<svg width="60" height="60" viewBox="0 0 60 60" fill="none" xmlns="http://www.w3.org/2000/svg">
<rect width="60" height="60" rx="16" fill="#D3E6FC"/>
<path d="M39.9246 11.3306C38.9792 10.4317 37.7693 10 36.5499 10C35.1772 10 33.791 10.5468 32.7574 11.5924L32.3139 12.0405L31.8703 11.591C30.8368 10.5468 29.4506 10 28.0779 10C26.8585 10 25.6486 10.4317 24.7032 11.3306C22.6239 13.3081 22.5873 16.6161 24.592 18.6416L32.3139 26.4431L40.0358 18.6416C42.0405 16.6161 42.0039 13.3081 39.9246 11.3306ZM47.504 30.4158C46.3172 29.6031 44.9188 29.8334 43.6804 30.5556C42.442 31.2777 35.3318 37.4197 35.3318 37.4197L28.3329 37.4211C28.0074 37.4211 27.6547 37.0511 27.6547 36.7236C27.6547 36.3385 27.987 36.0384 28.3329 36.0384H32.615C34.1138 36.0384 35.7917 35.0517 35.7917 33.2977C35.7917 31.434 34.1138 30.5569 32.615 30.5569C30.0148 30.5569 29.5089 30.5679 29.5089 30.5679C28.4672 30.5679 27.4106 30.5049 26.5967 30.065C25.5116 29.5031 24.261 29.1852 22.9263 29.1852C20.6856 29.1852 18.6795 30.0883 17.3041 31.5121L10 38.7778L18.1383 47L20.8511 44.2593H34.5872C35.9541 44.2592 37.2736 43.7526 38.2955 42.8354L47.5963 32.2946C48.1646 31.7848 48.132 30.8474 47.504 30.4158Z" fill="#4FA1FF"/>
</svg>
