<svg width="60" height="60" viewBox="0 0 60 60" fill="none" xmlns="http://www.w3.org/2000/svg">
<rect width="60" height="60" rx="16" fill="#B7FFE5"/>
<path d="M40.9062 28.8125H22.0938C20.3118 28.8125 18.6029 29.5204 17.3429 30.7804C16.0829 32.0404 15.375 33.7493 15.375 35.5312V43.5938C15.375 45.3757 16.0829 47.0846 17.3429 48.3446C18.6029 49.6046 20.3118 50.3125 22.0938 50.3125H40.9062C42.6882 50.3125 44.3971 49.6046 45.6571 48.3446C46.9171 47.0846 47.625 45.3757 47.625 43.5938V35.5312C47.625 33.7493 46.9171 32.0404 45.6571 30.7804C44.3971 29.5204 42.6882 28.8125 40.9062 28.8125V28.8125ZM31.5 44.9375C30.4369 44.9375 29.3977 44.6223 28.5138 44.0316C27.6299 43.441 26.941 42.6016 26.5341 41.6194C26.1273 40.6373 26.0209 39.5565 26.2283 38.5139C26.4357 37.4712 26.9476 36.5135 27.6993 35.7618C28.451 35.0101 29.4087 34.4982 30.4514 34.2908C31.494 34.0834 32.5748 34.1898 33.5569 34.5966C34.5391 35.0035 35.3785 35.6924 35.9691 36.5763C36.5598 37.4602 36.875 38.4994 36.875 39.5625C36.875 40.988 36.3087 42.3552 35.3007 43.3632C34.2927 44.3712 32.9255 44.9375 31.5 44.9375Z" fill="#00D889"/>
<path d="M31.5 42.25C32.9843 42.25 34.1875 41.0468 34.1875 39.5625C34.1875 38.0782 32.9843 36.875 31.5 36.875C30.0157 36.875 28.8125 38.0782 28.8125 39.5625C28.8125 41.0468 30.0157 42.25 31.5 42.25Z" fill="#00D889"/>
<path d="M31.5001 12.6875C31.1437 12.6875 30.8019 12.8291 30.5499 13.0811C30.2979 13.3331 30.1563 13.6749 30.1563 14.0312V21.5428L26.7432 18.1297C26.4861 17.9095 26.1555 17.7945 25.8173 17.8076C25.4791 17.8206 25.1583 17.9608 24.919 18.2001C24.6797 18.4395 24.5395 18.7603 24.5264 19.0985C24.5133 19.4366 24.6284 19.7673 24.8485 20.0244L30.546 25.7353C30.6698 25.8562 30.8158 25.952 30.976 26.0175C31.1418 26.0877 31.32 26.1239 31.5001 26.1239C31.6801 26.1239 31.8583 26.0877 32.0241 26.0175C32.1843 25.952 32.3303 25.8562 32.4541 25.7353L38.2188 20.0244C38.439 19.7673 38.554 19.4366 38.5409 19.0985C38.5279 18.7603 38.3877 18.4395 38.1484 18.2001C37.909 17.9608 37.5882 17.8206 37.25 17.8076C36.9119 17.7945 36.5812 17.9095 36.3241 18.1297L32.8438 21.5428V14.0312C32.8438 13.6749 32.7022 13.3331 32.4502 13.0811C32.1982 12.8291 31.8565 12.6875 31.5001 12.6875V12.6875Z" fill="#00D889"/>
</svg>
