<svg width="60" height="60" viewBox="0 0 60 60" fill="none" xmlns="http://www.w3.org/2000/svg">
<rect width="60" height="60" rx="16" fill="#FFE5EF"/>
<path d="M21.0721 32H20V34H21.0721C21.6497 34 22 33.7368 22 33C22 32.2632 21.6497 32 21.0721 32Z" fill="#FF2379"/>
<path d="M44.9246 25.0764H43.6056L32.2413 14.398C32.4559 13.9758 32.5677 13.5085 32.5673 13.0345C32.5663 11.3574 31.2116 9.99894 29.5418 10C27.8718 10.0011 26.5191 11.3615 26.5202 13.0386C26.52 13.5111 26.6317 13.9769 26.8461 14.3974L15.4819 25.0763H14.1629C11.8918 25.0763 10 26.9543 10 29.2351V39.8852C10 42.1664 11.8918 44 14.1629 44H44.9246C45.4619 44.001 45.9941 43.8951 46.4904 43.6884C46.9868 43.4817 47.4374 43.1783 47.8163 42.7957C48.1952 42.4131 48.4949 41.9589 48.698 41.4594C48.9012 40.9598 49.0038 40.4248 48.9999 39.8852V29.2351C48.9999 26.9543 47.1957 25.0764 44.9246 25.0764ZM22.0768 37.7531C21.9015 37.7531 21.7349 37.7036 21.6386 37.5186L20.4381 35.1982H19.8157V37.2776C19.8157 37.5593 19.5 37.7001 19.1584 37.7001C18.8168 37.7001 18.5011 37.5593 18.5011 37.2776V31.6799C18.4989 31.6236 18.5078 31.5674 18.5274 31.5146C18.5469 31.4618 18.5767 31.4134 18.615 31.3722C18.6533 31.331 18.6994 31.2979 18.7505 31.2748C18.8017 31.2517 18.8569 31.239 18.913 31.2375H20.727C21.928 31.2375 22.8831 31.7005 22.8831 33.1354C22.8831 34.1211 22.436 34.6915 21.8225 34.9293L22.8921 36.8781C22.9214 36.9262 22.9365 36.9816 22.9359 37.0383C22.9359 37.3815 22.4797 37.7531 22.0768 37.7531ZM27.1685 33.966C27.4315 33.966 27.5808 34.2214 27.5808 34.503C27.5808 34.7406 27.4578 35.0222 27.1685 35.0222H25.8629V36.5185H28.2029C28.4658 36.5185 28.6146 36.7739 28.6146 37.0995C28.6146 37.3811 28.4921 37.6627 28.2028 37.6627H25.0831C24.7848 37.6627 24.4606 37.5592 24.4606 37.2776V31.6885C24.4606 31.4069 24.7849 31.2378 25.0831 31.2378H28.2028C28.4921 31.2378 28.6147 31.5635 28.6147 31.8453C28.6147 32.1709 28.4657 32.47 28.2028 32.47H25.8629V33.9663L27.1685 33.966ZM34.5393 37.2777C34.5393 37.5594 34.2106 37.7002 33.869 37.7002C33.5533 37.7002 33.2884 37.6387 33.1216 37.3307L31.4719 34.2851V37.2777C31.4719 37.5594 31.1124 37.6999 30.7707 37.6999C30.4291 37.6999 30.0696 37.5593 30.0696 37.2777V31.6886C30.0696 31.3982 30.4202 31.2661 30.7618 31.2661C31.2528 31.2661 31.4544 31.3101 31.7875 31.9527L33.2247 34.6723V31.6797C33.2247 31.3892 33.5403 31.266 33.882 31.266C34.2236 31.266 34.5393 31.3892 34.5393 31.6797V37.2777ZM40.1831 32.4698H39.0089V37.2777C39.0089 37.5594 38.6494 37.7002 38.3078 37.7002C37.9662 37.7002 37.6067 37.5594 37.6067 37.2777V32.4699H36.3972C36.1343 32.4699 35.9853 32.1794 35.9853 31.8451C35.9853 31.5547 36.1078 31.2376 36.3972 31.2376H40.1831C40.4724 31.2376 40.5954 31.5547 40.5954 31.8451C40.5954 32.1793 40.446 32.4698 40.1831 32.4698ZM17.2769 25.0763L27.6137 15.3646C28.7293 16.3077 30.3596 16.3067 31.4739 15.3619L41.811 25.0764L17.2769 25.0763Z" fill="#FF2379"/>
</svg>
