<svg width="60" height="60" viewBox="0 0 60 60" fill="none" xmlns="http://www.w3.org/2000/svg">
<rect width="60" height="60" rx="16" fill="#CFFAEA"/>
<path d="M38.8375 27.425C37.9854 26.5621 37.0077 25.833 35.9375 25.2625C35.6576 25.1059 35.3697 24.9641 35.075 24.8375C34.4808 24.5688 33.8664 24.3473 33.2375 24.175L32.6375 24.0375C32.2 23.95 31.775 23.8875 31.3875 23.8375H30.8H30.5C30.1796 23.8128 29.8579 23.8128 29.5375 23.8375H29.2625H28.8H28.625C28.2048 23.8736 27.7873 23.9362 27.375 24.025L26.7875 24.1625C26.1641 24.3341 25.5541 24.5514 24.9625 24.8125C24.6625 24.95 24.3625 25.0875 24.0875 25.2375C22.0966 26.3063 20.4327 27.8948 19.2728 29.8339C18.1128 31.7731 17.5001 33.9904 17.5 36.25V40C17.5 41.6576 18.1585 43.2473 19.3306 44.4194C20.5027 45.5915 22.0924 46.25 23.75 46.25H36.25C37.9076 46.25 39.4973 45.5915 40.6694 44.4194C41.8415 43.2473 42.5 41.6576 42.5 40V36.25C42.5077 34.6093 42.1876 32.9836 41.5587 31.4681C40.9298 29.9527 40.0046 28.5781 38.8375 27.425V27.425ZM29.375 33.75H30.625C31.4538 33.6671 32.2816 33.9169 32.9262 34.4443C33.5709 34.9718 33.9796 35.7337 34.0625 36.5625C34.1454 37.3913 33.8956 38.2191 33.3682 38.8637C32.8407 39.5084 32.0788 39.9171 31.25 40C31.25 40.3315 31.1183 40.6495 30.8839 40.8839C30.6495 41.1183 30.3315 41.25 30 41.25C29.6685 41.25 29.3505 41.1183 29.1161 40.8839C28.8817 40.6495 28.75 40.3315 28.75 40H27.5C27.1685 40 26.8505 39.8683 26.6161 39.6339C26.3817 39.3995 26.25 39.0815 26.25 38.75C26.25 38.4185 26.3817 38.1005 26.6161 37.8661C26.8505 37.6317 27.1685 37.5 27.5 37.5H30.625C30.7908 37.5 30.9497 37.4341 31.0669 37.3169C31.1842 37.1997 31.25 37.0408 31.25 36.875C31.25 36.7092 31.1842 36.5503 31.0669 36.4331C30.9497 36.3158 30.7908 36.25 30.625 36.25H29.375C28.6 36.2508 27.8524 35.9636 27.2773 35.4441C26.7022 34.9247 26.3406 34.2101 26.2627 33.4391C26.1848 32.668 26.3962 31.8955 26.8558 31.2716C27.3155 30.6476 27.9905 30.2167 28.75 30.0625V30C28.75 29.6685 28.8817 29.3505 29.1161 29.1161C29.3505 28.8817 29.6685 28.75 30 28.75C30.3315 28.75 30.6495 28.8817 30.8839 29.1161C31.1183 29.3505 31.25 29.6685 31.25 30H32.5C32.8315 30 33.1495 30.1317 33.3839 30.3661C33.6183 30.6005 33.75 30.9185 33.75 31.25C33.75 31.5815 33.6183 31.8995 33.3839 32.1339C33.1495 32.3683 32.8315 32.5 32.5 32.5H29.375C29.2092 32.5 29.0503 32.5658 28.9331 32.6831C28.8158 32.8003 28.75 32.9592 28.75 33.125C28.75 33.2908 28.8158 33.4497 28.9331 33.5669C29.0503 33.6841 29.2092 33.75 29.375 33.75Z" fill="#00A86B"/>
<path d="M36.8249 19.5125L36.3374 22.6625L36.0999 22.5C35.4052 22.1843 34.6863 21.9251 33.9499 21.725C32.6599 21.3933 31.3318 21.2336 29.9999 21.25C28.6662 21.2543 27.3385 21.4308 26.0499 21.775C25.3229 21.9787 24.6125 22.2378 23.9249 22.55L23.6624 22.675L23.1749 19.5125C23.0747 18.8589 23.1491 18.1905 23.3905 17.5749C23.6319 16.9594 24.0317 16.4186 24.5495 16.0074C25.0673 15.5962 25.6846 15.3292 26.3389 15.2335C26.9931 15.1378 27.6611 15.2168 28.2749 15.4625L29.5249 15.9625C29.8219 16.0808 30.1529 16.0808 30.4499 15.9625L31.6999 15.4625C32.3138 15.2168 32.9817 15.1378 33.636 15.2335C34.2902 15.3292 34.9075 15.5962 35.4253 16.0074C35.9431 16.4186 36.343 16.9594 36.5844 17.5749C36.8258 18.1905 36.9002 18.8589 36.7999 19.5125H36.8249Z" fill="#00A86B"/>
</svg>
