<svg width="414" height="400" viewBox="0 0 414 400" fill="none" xmlns="http://www.w3.org/2000/svg">
<path d="M0 0H414V400L0 365.683V0Z" fill="#E8F4FF"/>
<path d="M249.5 199.5C249.5 250.878 209.19 292.5 159.5 292.5C109.81 292.5 69.5 250.878 69.5 199.5C69.5 148.122 109.81 106.5 159.5 106.5C209.19 106.5 249.5 148.122 249.5 199.5Z" stroke="white"/>
<path d="M282.5 200C282.5 269.321 227.422 325.5 159.5 325.5C91.5784 325.5 36.5 269.321 36.5 200C36.5 130.679 91.5784 74.5 159.5 74.5C227.422 74.5 282.5 130.679 282.5 200Z" stroke="white"/>
<path d="M318.5 199.5C318.5 289.534 247.302 362.5 159.5 362.5C71.6983 362.5 0.5 289.534 0.5 199.5C0.5 109.466 71.6983 36.5 159.5 36.5C247.302 36.5 318.5 109.466 318.5 199.5Z" stroke="white"/>
</svg>
