<svg width="56" height="99" viewBox="0 0 56 99" fill="none" xmlns="http://www.w3.org/2000/svg">
<path fill-rule="evenodd" clip-rule="evenodd" d="M45.2446 1.82086C45.7948 1.2512 46.453 0.796819 47.1807 0.484231C47.9083 0.171643 48.691 0.00710702 49.4829 0.000225196C50.2749 -0.00665662 51.0603 0.144253 51.7933 0.444148C52.5263 0.744043 53.1922 1.18692 53.7522 1.74693C54.3122 2.30695 54.7551 2.97288 55.055 3.70588C55.3549 4.43888 55.5058 5.22428 55.4989 6.01622C55.4921 6.80817 55.3275 7.59082 55.0149 8.3185C54.7023 9.04618 54.248 9.70432 53.6783 10.2545L18.6136 45.3192C17.4955 46.4377 16.8673 47.9545 16.8673 49.536C16.8673 51.1176 17.4955 52.6344 18.6136 53.7529L53.6843 88.8176C54.8026 89.9367 55.4306 91.4543 55.4301 93.0365C55.4295 94.6187 54.8004 96.1358 53.6813 97.2542C52.5621 98.3726 51.0445 99.0006 49.4623 99C47.8802 98.9994 46.363 98.3704 45.2446 97.2512L1.74629 53.7529C0.628141 52.6344 0 51.1176 0 49.536C0 47.9545 0.628141 46.4377 1.74629 45.3192L45.2446 1.82086Z" fill="black"/>
</svg>
