<svg width="45" height="46" viewBox="0 0 45 46" fill="none" xmlns="http://www.w3.org/2000/svg">
<path d="M39.3735 0H18.7428C17.2505 0 15.8194 0.592797 14.7642 1.64798C13.709 2.70317 13.1162 4.13431 13.1162 5.62657V15.0042C13.1162 15.5016 13.3138 15.9786 13.6655 16.3304C14.0173 16.6821 14.4943 16.8797 14.9917 16.8797C15.4892 16.8797 15.9662 16.6821 16.3179 16.3304C16.6697 15.9786 16.8673 15.5016 16.8673 15.0042V5.62657C16.8673 5.12915 17.0649 4.6521 17.4166 4.30037C17.7683 3.94864 18.2454 3.75104 18.7428 3.75104H39.3735C39.8709 3.75104 40.348 3.94864 40.6997 4.30037C41.0514 4.6521 41.249 5.12915 41.249 5.62657V39.386C41.249 39.8834 41.0514 40.3604 40.6997 40.7122C40.348 41.0639 39.8709 41.2615 39.3735 41.2615H18.7428C18.2454 41.2615 17.7683 41.0639 17.4166 40.7122C17.0649 40.3604 16.8673 39.8834 16.8673 39.386V30.0084C16.8673 29.5109 16.6697 29.0339 16.3179 28.6822C15.9662 28.3304 15.4892 28.1328 14.9917 28.1328C14.4943 28.1328 14.0173 28.3304 13.6655 28.6822C13.3138 29.0339 13.1162 29.5109 13.1162 30.0084V39.386C13.1162 40.8782 13.709 42.3094 14.7642 43.3645C15.8194 44.4197 17.2505 45.0125 18.7428 45.0125H39.3735C40.8658 45.0125 42.2969 44.4197 43.3521 43.3645C44.4073 42.3094 45.0001 40.8782 45.0001 39.386V5.62657C45.0001 4.13431 44.4073 2.70317 43.3521 1.64798C42.2969 0.592797 40.8658 0 39.3735 0Z" fill="white"/>
<path d="M8.81559 15.5538C8.46387 15.2022 7.98691 15.0046 7.48959 15.0046C6.99227 15.0046 6.51531 15.2022 6.1636 15.5538L0.537033 21.1803C0.192599 21.5358 0 22.0114 0 22.5063C0 23.0013 0.192599 23.4768 0.537033 23.8323L6.1636 29.4589C6.33661 29.638 6.54356 29.7809 6.77238 29.8792C7.00121 29.9775 7.24731 30.0292 7.49634 30.0314C7.74537 30.0336 7.99234 29.9861 8.22284 29.8918C8.45333 29.7975 8.66274 29.6582 8.83883 29.4821C9.01493 29.306 9.1542 29.0966 9.2485 28.8661C9.3428 28.6356 9.39025 28.3887 9.38809 28.1396C9.38593 27.8906 9.33419 27.6445 9.23589 27.4157C9.1376 27.1869 8.99472 26.9799 8.81559 26.8069L6.39054 24.3818H29.9959C30.4933 24.3818 30.9703 24.1842 31.3221 23.8325C31.6738 23.4808 31.8714 23.0037 31.8714 22.5063C31.8714 22.0089 31.6738 21.5319 31.3221 21.1801C30.9703 20.8284 30.4933 20.6308 29.9959 20.6308H6.39054L8.81559 18.2058C9.16719 17.854 9.36471 17.3771 9.36471 16.8798C9.36471 16.3824 9.16719 15.9055 8.81559 15.5538Z" fill="white"/>
</svg>
