<svg width="60" height="60" viewBox="0 0 60 60" fill="none" xmlns="http://www.w3.org/2000/svg">
<rect width="60" height="60" rx="16" fill="#FFFFF4"/>
<path d="M51.8422 21.8432L29.8338 14.0781C29.5389 13.974 29.2172 13.974 28.9223 14.0781L6.91391 21.8432C6.64693 21.9375 6.41571 22.1121 6.25205 22.3431C6.0884 22.5742 6.00034 22.8502 6 23.1334C5.99966 23.4165 6.08705 23.6927 6.25015 23.9242C6.41325 24.1556 6.64405 24.3308 6.9108 24.4257L28.9192 32.2498C29.216 32.3554 29.54 32.3554 29.8368 32.2498L51.8452 24.4257C52.112 24.3309 52.3429 24.1557 52.506 23.9242C52.6691 23.6928 52.7566 23.4165 52.7562 23.1334C52.7559 22.8502 52.6678 22.5741 52.5042 22.3431C52.3405 22.1121 52.1092 21.9374 51.8422 21.8432ZM49.4662 40.1275V28.1791L46.7266 29.153V40.1275C45.9014 40.6025 45.3453 41.4924 45.3453 42.5129C45.3453 43.5334 45.9014 44.4234 46.7266 44.8983V51.6302C46.7266 52.3867 47.3399 53 48.0964 53C48.8529 53 49.4662 52.3867 49.4662 51.6302V44.8984C50.2914 44.4236 50.8474 43.5335 50.8474 42.513C50.8474 41.4925 50.2915 40.6025 49.4662 40.1275Z" fill="#FFE03A"/>
<path d="M29.3779 35.0687C28.9076 35.0687 28.4446 34.9888 28.0014 34.8312L15.6289 30.4327V36.4607C15.6289 37.9354 17.1674 39.1826 20.2016 40.1674C22.8464 41.0258 26.1053 41.4986 29.3779 41.4986C32.6504 41.4986 35.9092 41.0258 38.5541 40.1674C41.5883 39.1826 43.1268 37.9354 43.1268 36.4607V30.4327L30.7544 34.8312C30.3125 34.9885 29.8469 35.0688 29.3779 35.0687Z" fill="#FFE03A"/>
</svg>
