<svg width="60" height="60" viewBox="0 0 60 60" fill="none" xmlns="http://www.w3.org/2000/svg">
<rect width="60" height="60" rx="16" fill="#FFD3F5"/>
<path d="M46.0671 37.2186L41.4619 32.6134C39.8172 30.9687 37.0211 31.6266 36.3632 33.7647C35.8698 35.245 34.2251 36.0674 32.7448 35.7384C29.4554 34.916 25.0146 30.6397 24.1922 27.1858C23.6988 25.7055 24.6857 24.0607 26.1659 23.5674C28.3041 22.9095 28.962 20.1135 27.3172 18.4687L22.712 13.8635C21.3962 12.7122 19.4225 12.7122 18.2712 13.8635L15.1462 16.9885C12.0212 20.2779 15.4752 28.995 23.2054 36.7252C30.9356 44.4555 39.6527 48.0739 42.9422 44.7844L46.0671 41.6594C47.2185 40.3436 47.2185 38.37 46.0671 37.2186Z" fill="#AC0086"/>
</svg>
