<svg width="60" height="60" viewBox="0 0 60 60" fill="none" xmlns="http://www.w3.org/2000/svg">
<rect width="60" height="60" rx="16" fill="#FDD5D7"/>
<path d="M38.75 27.5H21.25C19.5924 27.5 18.0027 28.1585 16.8306 29.3306C15.6585 30.5027 15 32.0924 15 33.75V41.25C15 42.9076 15.6585 44.4973 16.8306 45.6694C18.0027 46.8415 19.5924 47.5 21.25 47.5H38.75C40.4076 47.5 41.9973 46.8415 43.1694 45.6694C44.3415 44.4973 45 42.9076 45 41.25V33.75C45 32.0924 44.3415 30.5027 43.1694 29.3306C41.9973 28.1585 40.4076 27.5 38.75 27.5V27.5ZM30 42.5C29.0111 42.5 28.0444 42.2068 27.2221 41.6573C26.3999 41.1079 25.759 40.327 25.3806 39.4134C25.0022 38.4998 24.9031 37.4945 25.0961 36.5245C25.289 35.5546 25.7652 34.6637 26.4645 33.9645C27.1637 33.2652 28.0546 32.789 29.0245 32.5961C29.9945 32.4031 30.9998 32.5022 31.9134 32.8806C32.827 33.259 33.6079 33.8999 34.1573 34.7221C34.7068 35.5444 35 36.5111 35 37.5C35 38.8261 34.4732 40.0979 33.5355 41.0355C32.5979 41.9732 31.3261 42.5 30 42.5Z" fill="#FD3C4A"/>
<path d="M30 40C31.3807 40 32.5 38.8807 32.5 37.5C32.5 36.1193 31.3807 35 30 35C28.6193 35 27.5 36.1193 27.5 37.5C27.5 38.8807 28.6193 40 30 40Z" fill="#FD3C4A"/>
<path d="M30.8876 12.8625C30.7714 12.7453 30.6332 12.6523 30.4808 12.5889C30.3285 12.5254 30.1651 12.4927 30.0001 12.4927C29.8351 12.4927 29.6717 12.5254 29.5194 12.5889C29.3671 12.6523 29.2288 12.7453 29.1126 12.8625L23.8126 18.175C23.5706 18.4087 23.4313 18.729 23.4255 19.0654C23.4196 19.4018 23.5476 19.7267 23.7814 19.9687C24.0151 20.2107 24.3354 20.35 24.6718 20.3559C25.0082 20.3617 25.3331 20.2337 25.5751 20L28.7501 16.7625V23.75C28.7501 24.0815 28.8818 24.3994 29.1162 24.6339C29.3506 24.8683 29.6686 25 30.0001 25C30.3316 25 30.6496 24.8683 30.884 24.6339C31.1184 24.3994 31.2501 24.0815 31.2501 23.75V16.7625L34.4251 20C34.6579 20.2309 34.9722 20.3611 35.3001 20.3625C35.475 20.372 35.65 20.3446 35.8136 20.2822C35.9773 20.2197 36.126 20.1236 36.2501 20C36.4829 19.7658 36.6136 19.449 36.6136 19.1187C36.6136 18.7885 36.4829 18.4717 36.2501 18.2375L30.8876 12.8625Z" fill="#FD3C4A"/>
</svg>
